<svg width="32" height="32" viewBox="0 0 32 32" fill="none" xmlns="http://www.w3.org/2000/svg">
  <!-- Background azul gov.br -->
  <rect width="32" height="32" rx="6" fill="#1351B4"/>
  
  <!-- Shield Icon (branco) -->
  <path d="M16 2L8 5.5V14C8 21.5 16 28 16 28C16 28 24 21.5 24 14V5.5L16 2Z" 
        fill="white" 
        stroke="white" 
        stroke-width="1.5" 
        stroke-linecap="round" 
        stroke-linejoin="round"/>
</svg>
  
  <!-- Órbita 1 (Verde - cor da bandeira) -->
  <ellipse cx="50" cy="50" rx="28" ry="14" fill="none" stroke="#009B3A" stroke-width="2.5" opacity="0.8" stroke-dasharray="2,3" />
  
  <!-- Órbita 2 (Azul - cor da bandeira) rotacionada 60° -->
  <ellipse cx="50" cy="50" rx="28" ry="14" fill="none" stroke="#002776" stroke-width="2.5" opacity="0.8" stroke-dasharray="2,3" transform="rotate(60 50 50)" />
  
  <!-- Órbita 3 (Verde novamente) rotacionada 120° -->
  <ellipse cx="50" cy="50" rx="28" ry="14" fill="none" stroke="#009B3A" stroke-width="2.5" opacity="0.8" stroke-dasharray="2,3" transform="rotate(120 50 50)" />
  
  <!-- Elétrons nas órbitas (vermelho/laranja para contraste) -->
  <!-- Elétron 1 (Verde) -->
  <circle cx="78" cy="50" r="5" fill="#009B3A" opacity="0.9" />
  <circle cx="78" cy="50" r="5" fill="none" stroke="#FFFFFF" stroke-width="1" opacity="0.6" />
  
  <!-- Elétron 2 (Azul) -->
  <circle cx="29" cy="64.95" r="5" fill="#002776" opacity="0.9" />
  <circle cx="29" cy="64.95" r="5" fill="none" stroke="#FFFFFF" stroke-width="1" opacity="0.6" />
  
  <!-- Elétron 3 (Verde) -->
  <circle cx="29" cy="35.05" r="5" fill="#009B3A" opacity="0.9" />
  <circle cx="29" cy="35.05" r="5" fill="none" stroke="#FFFFFF" stroke-width="1" opacity="0.6" />
  
  <!-- Brilho central no núcleo -->
  <circle cx="46" cy="46" r="4" fill="#FFFFFF" opacity="0.4" />
  
  <!-- Aro/borda externa para profundidade -->
  <circle cx="50" cy="50" r="48" fill="none" stroke="#009B3A" stroke-width="1" opacity="0.3" />
</svg>